<svg xmlns="http://www.w3.org/2000/svg" xmlns:xlink="http://www.w3.org/1999/xlink" width="260" height="260" viewBox="0 0 260 260">
  <defs>
    <linearGradient id="linear-gradient" x1="0.5" x2="0.5" y2="1" gradientUnits="objectBoundingBox">
      <stop offset="0" stop-color="#fe8c00"/>
      <stop offset="1" stop-color="#de9231"/>
    </linearGradient>
  </defs>
  <g id="Group_19" data-name="Group 19" transform="translate(-443 -1398)">
    <circle id="Oval_Copy_4" data-name="Oval Copy 4" cx="130" cy="130" r="130" transform="translate(443 1398)" fill="url(#linear-gradient)"/>
    <text id="Vandal-proof" transform="translate(519 1619)" fill="#fff" font-size="16" font-family="Roboto-Medium, Roboto" font-weight="500" letter-spacing="0.083em"><tspan x="0" y="0">Vandal-proof</tspan></text>
    <g id="hammer" transform="translate(533 1445)">
      <path id="Shape" d="M55.976,123H48.238a3.741,3.741,0,0,1-3.745-3.728v-4a23.111,23.111,0,0,1-5.422-.864l-7.81-2.221a19.541,19.541,0,0,0-5.349-.746H18.8a5.676,5.676,0,0,1-5.381,3.852H5.679A5.673,5.673,0,0,1,0,109.643V74.98a5.672,5.672,0,0,1,5.679-5.653h7.738A5.675,5.675,0,0,1,18.8,73.178h6.226a7.83,7.83,0,0,0,5.559-2.292L34.591,66.9a11.43,11.43,0,0,1,8.119-3.348h1.784V19.009H36.631a5.672,5.672,0,0,1-5.679-5.653v-7.7A5.672,5.672,0,0,1,36.631,0H54.547A13.481,13.481,0,0,1,57.8.4L77.753,5.364a4.263,4.263,0,0,1,0,8.281L59.72,18.133V63.549h1.092a6.606,6.606,0,0,1,5.762,9.906,6.615,6.615,0,0,1,4.72,7.015,6.6,6.6,0,0,1-3.259,4.946A6.49,6.49,0,0,1,66.1,95.045a6.491,6.491,0,0,1-1.934,9.629,6.6,6.6,0,0,1,1.323,4.684,6.414,6.414,0,0,1-1.861,3.858,7.129,7.129,0,0,1-3.908,1.992v4.065A3.741,3.741,0,0,1,55.976,123Zm-7.862-7.7v3.975a.125.125,0,0,0,.125.124h7.737a.125.125,0,0,0,.125-.124V115.3ZM17.286,84.733a1.808,1.808,0,0,1,1.81,1.8v21.307h6.817a23.2,23.2,0,0,1,6.343.885l7.81,2.221a19.542,19.542,0,0,0,5.349.746H58.6a3.207,3.207,0,0,0,3.287-2.7,2.988,2.988,0,0,0-.765-2.337,3.04,3.04,0,0,0-2.246-.993H50.172a1.8,1.8,0,1,1,0-3.6H60.537a3.207,3.207,0,0,0,3.286-2.7,2.988,2.988,0,0,0-.765-2.337,3.039,3.039,0,0,0-2.245-.992h-8.7a1.8,1.8,0,1,1,0-3.6H62.471a3.207,3.207,0,0,0,3.286-2.7,2.988,2.988,0,0,0-.765-2.337,3.04,3.04,0,0,0-2.246-.993h-8.7a1.8,1.8,0,1,1,0-3.6H64.4a3.207,3.207,0,0,0,3.287-2.7,2.988,2.988,0,0,0-.765-2.337,3.045,3.045,0,0,0-2.246-.992H44.369a1.8,1.8,0,1,1,0-3.6h.124V67.154H42.709a7.827,7.827,0,0,0-5.559,2.292l-4.007,3.989a11.435,11.435,0,0,1-8.12,3.348H19.1v2.049a1.81,1.81,0,0,1-3.62,0V74.981a2.057,2.057,0,0,0-2.059-2.05H5.679a2.057,2.057,0,0,0-2.059,2.05v34.664a2.057,2.057,0,0,0,2.059,2.049h7.738a2.057,2.057,0,0,0,2.059-2.049V86.535A1.808,1.808,0,0,1,17.286,84.733ZM59.72,67.154v6.025h1.092a3.013,3.013,0,1,0,0-6.025ZM48.113,57.524V73.179H56.1V57.524Zm0-38.515V53.921H56.1v-35a13.207,13.207,0,0,1-1.553.093ZM36.631,3.6a2.057,2.057,0,0,0-2.059,2.049v7.7a2.057,2.057,0,0,0,2.059,2.05H54.547a9.827,9.827,0,0,0,2.376-.292l19.952-4.965a.664.664,0,0,0,0-1.289L56.923,3.894A9.882,9.882,0,0,0,54.547,3.6Z" fill="#fff"/>
    </g>
  </g>
</svg>
