<svg id="Group_25" data-name="Group 25" xmlns="http://www.w3.org/2000/svg" width="18" height="17.562" viewBox="0 0 18 17.562">
  <path id="Shape" d="M13.127,17.562H4.873A4.82,4.82,0,0,1,0,12.808V4.754A4.82,4.82,0,0,1,4.873,0h8.255A4.82,4.82,0,0,1,18,4.754v8.054A4.82,4.82,0,0,1,13.127,17.562ZM9,3.979a4.869,4.869,0,0,0-4.922,4.8A4.868,4.868,0,0,0,9,13.583a4.868,4.868,0,0,0,4.922-4.8A4.869,4.869,0,0,0,9,3.979Zm5.039-1.706a1.439,1.439,0,0,0-1.454,1.419,1.455,1.455,0,0,0,2.909,0A1.439,1.439,0,0,0,14.039,2.273Z" fill="#fff"/>
  <path id="Path" d="M3.867,0A3.766,3.766,0,0,0,0,3.647,3.766,3.766,0,0,0,3.867,7.295,3.766,3.766,0,0,0,7.733,3.647,3.766,3.766,0,0,0,3.867,0Z" transform="translate(5 5)" fill="#fff"/>
  <path id="Path-2" data-name="Path" d="M.4,0C.179,0,0,.081,0,.18S.179.36.4.36.8.279.8.18.619,0,.4,0Z" transform="translate(14 9)" fill="#fff"/>
</svg>
