<svg xmlns="http://www.w3.org/2000/svg" xmlns:xlink="http://www.w3.org/1999/xlink" width="260" height="260" viewBox="0 0 260 260">
  <defs>
    <linearGradient id="linear-gradient" x1="0.5" x2="0.5" y2="1" gradientUnits="objectBoundingBox">
      <stop offset="0" stop-color="#fe8c00"/>
      <stop offset="1" stop-color="#de9231"/>
    </linearGradient>
  </defs>
  <g id="ip" transform="translate(-1030 -1398)">
    <circle id="Oval_Copy_6" data-name="Oval Copy 6" cx="130" cy="130" r="130" transform="translate(1030 1398)" fill="url(#linear-gradient)"/>
    <text id="IP_67" data-name="IP 67" transform="translate(1138 1619)" fill="#fff" font-size="16" font-family="Roboto-Medium, Roboto" font-weight="500" letter-spacing="0.083em"><tspan x="0" y="0">IP 67</tspan></text>
    <g id="raindrop" transform="translate(1116 1445)">
      <path id="Shape" d="M43.873,123a45.961,45.961,0,0,1-17.59-3.368,41.034,41.034,0,0,1-13.889-9.374A42.416,42.416,0,0,1,3.277,95.97,49.713,49.713,0,0,1,0,77.863,44.966,44.966,0,0,1,1.8,65.453,67.628,67.628,0,0,1,6.6,53.444c4.037-8.012,9.592-16.066,14.964-23.854l.786-1.16c5.265-7.774,10.71-15.812,15.009-24.293A7.271,7.271,0,0,1,44,0a7.5,7.5,0,0,1,6.644,4.137c4.623,9,10.709,17.756,16.547,25.954l.317.452C78.559,46.319,89,61.22,89,77.863A45.08,45.08,0,0,1,76.073,110.07,45.057,45.057,0,0,1,43.873,123ZM44,5.016a2.422,2.422,0,0,0-2.256,1.379c-4.658,9.193-10.51,17.777-16.17,26.079l-.042.061C14.979,47.989,5.014,62.586,5.014,77.863c0,23.248,16.343,40.122,38.859,40.122,22.868,0,40.113-17.249,40.113-40.122,0-15.016-9.949-29.3-20.481-44.417l-.328-.47C57.542,24.99,51.155,15.939,46.255,6.395A2.421,2.421,0,0,0,44,5.016Z" fill="#fff"/>
      <path id="Path" d="M16.844.44a2.576,2.576,0,0,0-3.547.642C8.99,7.754,3.922,15.452.248,23.279a2.638,2.638,0,0,0,1.267,3.464A3.659,3.659,0,0,0,2.656,27a2.52,2.52,0,0,0,2.28-1.411A166.475,166.475,0,0,1,17.6,4.161,2.843,2.843,0,0,0,16.844.44Z" transform="translate(15 36)" fill="#fff"/>
      <path id="Path-2" data-name="Path" d="M4.386.179A2.394,2.394,0,0,0,1.248,1.606,28.419,28.419,0,0,0,.041,5.887,2.732,2.732,0,0,0,1.972,9h.483A2.62,2.62,0,0,0,4.869,6.924a18.946,18.946,0,0,1,.966-3.5A2.6,2.6,0,0,0,4.386.179Z" transform="translate(12 65)" fill="#fff"/>
    </g>
  </g>
</svg>
