<svg xmlns="http://www.w3.org/2000/svg" width="24.822" height="24.604" viewBox="0 0 24.822 24.604"><g transform="translate(0 -0.219)"><ellipse cx="12.411" cy="12.302" rx="12.411" ry="12.302" transform="translate(0 0.219)" fill="#fff"/><path d="M7.749,13.109H4.783c0-.005,0-.059,0-.147.011-2.389.032-8.02,0-8.7H7.749V5.516l-.007.011,0,0-.01.014h.02v-.03a2.936,2.936,0,0,1,2.674-1.461c2.139,0,3.415,1.488,3.415,3.98v5.071H10.871V8.375c0-1.308-.519-2-1.5-2A1.623,1.623,0,0,0,7.847,7.451a1.939,1.939,0,0,0-.1.716v4.94Zm-4.607,0H.176V4.263H3.142v8.843ZM1.659,3.056H1.64A1.533,1.533,0,1,1,1.678,0a1.534,1.534,0,1,1-.02,3.056Z" transform="translate(5.988 5.476)" fill="#050521"/></g></svg>