<svg xmlns="http://www.w3.org/2000/svg" xmlns:xlink="http://www.w3.org/1999/xlink" width="260" height="260" viewBox="0 0 260 260">
  <defs>
    <linearGradient id="linear-gradient" x1="0.5" x2="0.5" y2="1" gradientUnits="objectBoundingBox">
      <stop offset="0" stop-color="#243b55"/>
      <stop offset="1" stop-color="#050521"/>
    </linearGradient>
  </defs>
  <g id="max" transform="translate(-150 -1398)">
    <circle id="Oval" cx="130" cy="130" r="130" transform="translate(150 1398)" fill="url(#linear-gradient)"/>
    <text id="Max_3000" data-name="Max 3000" transform="translate(239 1619)" fill="#fff" font-size="16" font-family="Roboto-Medium, Roboto" font-weight="500" letter-spacing="0.083em"><tspan x="0" y="0">Max 3000</tspan></text>
    <g id="fingerprints" transform="translate(236 1440)">
      <path id="Path" d="M21.069,76.932A39.878,39.878,0,0,1,4.578,44.808V5.869c0-1.141.049-2.294.147-3.425A2.265,2.265,0,0,0,2.638.008,2.28,2.28,0,0,0,.164,2.063C.055,3.32,0,4.6,0,5.869V44.808A43.968,43.968,0,0,0,5,65.154,44.984,44.984,0,0,0,18.352,80.56a2.313,2.313,0,0,0,3.2-.476A2.231,2.231,0,0,0,21.069,76.932Z" transform="translate(0 39)" fill="#fff"/>
      <path id="Path-2" data-name="Path" d="M7.459,1.821A42.147,42.147,0,0,1,3.29.212,2.368,2.368,0,0,0,.226,1.221,2.09,2.09,0,0,0,1.3,4.088,46.991,46.991,0,0,0,5.947,5.88,2.435,2.435,0,0,0,6.7,6,2.294,2.294,0,0,0,8.872,4.558,2.118,2.118,0,0,0,7.459,1.821Z" transform="translate(24 119)" fill="#fff"/>
      <path id="Path-3" data-name="Path" d="M48.771,0a2.249,2.249,0,0,0-2.229,2.269v8.042c0,22.14-17.7,40.152-39.448,40.152a39.34,39.34,0,0,1-4.607-.271A2.237,2.237,0,0,0,.015,52.183,2.26,2.26,0,0,0,1.972,54.7a43.718,43.718,0,0,0,5.122.3C31.3,55,51,34.952,51,10.311V2.269A2.249,2.249,0,0,0,48.771,0Z" transform="translate(38 73)" fill="#fff"/>
      <path id="Path-4" data-name="Path" d="M42.488,0A44.547,44.547,0,0,0,.109,30.965a2.261,2.261,0,1,0,4.3,1.39A39.982,39.982,0,0,1,82.48,44.665V66.732a2.26,2.26,0,1,0,4.52,0V44.665A44.639,44.639,0,0,0,42.488,0Z" transform="translate(2)" fill="#fff"/>
      <path id="Path-5" data-name="Path" d="M1.244.235A2.286,2.286,0,0,0,.23,3.272,35.273,35.273,0,0,0,12.8,17.512,34.123,34.123,0,0,0,31.369,23a33.864,33.864,0,0,0,14.324-3.149,2.284,2.284,0,0,0,1.106-3,2.214,2.214,0,0,0-2.953-1.125,29.5,29.5,0,0,1-12.478,2.742A29.726,29.726,0,0,1,15.2,13.684,30.764,30.764,0,0,1,4.229,1.265,2.212,2.212,0,0,0,1.244.235Z" transform="translate(13 95)" fill="#fff"/>
      <path id="Path-6" data-name="Path" d="M2.3,87a2.329,2.329,0,0,0,1.521-.56A34.533,34.533,0,0,0,16,60.251V21.516A33.994,33.994,0,0,0,9.074.916,2.343,2.343,0,0,0,5.856.434a2.2,2.2,0,0,0-.494,3.134,29.618,29.618,0,0,1,6.033,17.948V60.251A30.1,30.1,0,0,1,.781,83.075,2.2,2.2,0,0,0,.575,86.24,2.325,2.325,0,0,0,2.3,87Z" transform="translate(64 23)" fill="#fff"/>
      <path id="Path-7" data-name="Path" d="M6.3,6.619A2.517,2.517,0,0,0,7.643,7,2.432,2.432,0,0,0,9.58,6.081,2.013,2.013,0,0,0,8.986,3.11,37.914,37.914,0,0,0,3.334.193,2.46,2.46,0,0,0,.213,1.249,2.058,2.058,0,0,0,1.377,4.078,33.028,33.028,0,0,1,6.3,6.619Z" transform="translate(56 12)" fill="#fff"/>
      <path id="Path-8" data-name="Path" d="M41.114.49A35.685,35.685,0,0,0,35.221,0,35.146,35.146,0,0,0,0,34.989V72.752a2.263,2.263,0,0,0,4.526,0V34.989A30.63,30.63,0,0,1,35.221,4.5a31.1,31.1,0,0,1,5.138.427A2.249,2.249,0,1,0,41.114.49Z" transform="translate(9 9)" fill="#fff"/>
      <path id="Path-9" data-name="Path" d="M.383,11.311a2.251,2.251,0,0,0,.6,3.114,2.222,2.222,0,0,0,3.1-.6A21,21,0,0,1,42.54,25.639V50.757a2.23,2.23,0,1,0,4.46,0V25.639A25.454,25.454,0,0,0,.383,11.311Z" transform="translate(23 19)" fill="#fff"/>
      <path id="Path-10" data-name="Path" d="M2,10A2.15,2.15,0,0,0,4,7.726V2.274A2.15,2.15,0,0,0,2,0,2.15,2.15,0,0,0,0,2.274V7.726A2.15,2.15,0,0,0,2,10Z" transform="translate(19 42)" fill="#fff"/>
      <path id="Path-11" data-name="Path" d="M0,27A25.98,25.98,0,0,0,13.564,49.711a2.33,2.33,0,0,0,3.142-.876,2.255,2.255,0,0,0-.89-3.094,21.441,21.441,0,0,1-11.2-18.736V2.274A2.292,2.292,0,0,0,2.31,0,2.292,2.292,0,0,0,0,2.274V27Z" transform="translate(19 56)" fill="#fff"/>
      <path id="Path-12" data-name="Path" d="M34,6.316V2.247a2.28,2.28,0,0,0-4.559,0v4.07a21.369,21.369,0,0,1-21.5,21.19A21.806,21.806,0,0,1,2.823,26.9,2.281,2.281,0,0,0,.066,28.546a2.245,2.245,0,0,0,1.671,2.717A26.444,26.444,0,0,0,7.945,32,25.9,25.9,0,0,0,34,6.316Z" transform="translate(36 77)" fill="#fff"/>
      <path id="Path-13" data-name="Path" d="M33,16.79A16.732,16.732,0,0,0,16.818,0,16.539,16.539,0,0,0,0,16.551V55.732a2.261,2.261,0,1,0,4.522,0V16.551A12.011,12.011,0,0,1,16.732,4.538,12.181,12.181,0,0,1,28.478,16.79V38.319a2.261,2.261,0,1,0,4.522,0Z" transform="translate(28 28)" fill="#fff"/>
      <path id="Path-14" data-name="Path" d="M0,21.336A11.849,11.849,0,0,0,12,33,11.849,11.849,0,0,0,24,21.336V10.554a2.3,2.3,0,0,0-4.588,0V21.336A7.319,7.319,0,0,1,12,28.541a7.318,7.318,0,0,1-7.412-7.2V2.23A2.263,2.263,0,0,0,2.294,0,2.263,2.263,0,0,0,0,2.23Z" transform="translate(37 65)" fill="#fff"/>
      <path id="Path-15" data-name="Path" d="M11.788,50A2.232,2.232,0,0,0,14,47.749V7.264A7.138,7.138,0,0,0,7.35.009,6.87,6.87,0,0,0,2.176,1.964,7.215,7.215,0,0,0,0,7.123v12.6a2.232,2.232,0,0,0,2.212,2.251,2.232,2.232,0,0,0,2.212-2.251V7.123a2.619,2.619,0,0,1,.8-1.9,2.527,2.527,0,0,1,1.905-.72A2.708,2.708,0,0,1,9.576,7.264V47.749A2.232,2.232,0,0,0,11.788,50Z" transform="translate(38 37)" fill="#fff"/>
    </g>
  </g>
</svg>
