<svg xmlns="http://www.w3.org/2000/svg" width="19" height="15.438" viewBox="0 0 19 15.438">
  <path id="Path" d="M19,1.828a8.121,8.121,0,0,1-2.244.615A3.873,3.873,0,0,0,18.469.29,7.784,7.784,0,0,1,16,1.233,3.895,3.895,0,0,0,9.261,3.9a4.011,4.011,0,0,0,.09.888A11.025,11.025,0,0,1,1.323.71a3.9,3.9,0,0,0,1.2,5.206,3.847,3.847,0,0,1-1.76-.48v.043A3.913,3.913,0,0,0,3.881,9.306a3.888,3.888,0,0,1-1.021.128,3.444,3.444,0,0,1-.737-.066,3.932,3.932,0,0,0,3.64,2.713,7.827,7.827,0,0,1-4.83,1.661A7.3,7.3,0,0,1,0,13.689a10.966,10.966,0,0,0,5.976,1.748A11.01,11.01,0,0,0,17.062,4.353c0-.172-.006-.338-.014-.5A7.771,7.771,0,0,0,19,1.828Z" fill="#fff"/>
</svg>
