<svg xmlns="http://www.w3.org/2000/svg" width="19.848" height="19.855" viewBox="0 0 19.848 19.855">
  <path id="Shape" d="M14.54,19.855a9.413,9.413,0,0,1-3.956-.983A17.906,17.906,0,0,1,7.66,17a25.1,25.1,0,0,1-2.554-2.25,26.338,26.338,0,0,1-2.243-2.561A17.736,17.736,0,0,1,.989,9.261,9.528,9.528,0,0,1,.006,5.578,3.636,3.636,0,0,1,.744,2.891L5.45,7.6a2.264,2.264,0,0,0,.356,2.244c.573.667,1.217,1.358,2.029,2.174.8.8,1.491,1.446,2.169,2.029a2.159,2.159,0,0,0,1.414.5,2.384,2.384,0,0,0,.833-.148l4.707,4.707A3.467,3.467,0,0,1,14.54,19.855ZM17.859,18.2h0l-4.583-4.585a2.185,2.185,0,0,0,.291-.241l.724-.727.785-.784a.713.713,0,0,1,.5-.206.7.7,0,0,1,.5.2l3.571,3.573a.687.687,0,0,1,.2.491.7.7,0,0,1-.211.5q-.891.888-1.778,1.776ZM6.233,6.573h0L1.648,1.986l.38-.381.379-.38L2.433,1.2l0,0Q2.929.7,3.424.209A.7.7,0,0,1,3.926,0a.7.7,0,0,1,.49.2L7.987,3.776a.706.706,0,0,1,0,1L7.2,5.554l-.728.729a1.952,1.952,0,0,0-.239.289Z" transform="translate(0 0)" fill="#fff"/>
</svg>
