<svg xmlns="http://www.w3.org/2000/svg" width="24.826" height="24.826" viewBox="0 0 24.826 24.826"><path d="M12.413,24.826A12.413,12.413,0,1,1,24.826,12.413,12.427,12.427,0,0,1,12.413,24.826ZM5.451,16.788h0A8.128,8.128,0,0,0,17.959,9.943c0-.124,0-.249-.008-.371a5.71,5.71,0,0,0,1.424-1.478,5.679,5.679,0,0,1-1.641.45,2.866,2.866,0,0,0,1.258-1.581,5.7,5.7,0,0,1-1.815.694,2.858,2.858,0,0,0-4.942,1.955,2.84,2.84,0,0,0,.074.652A8.138,8.138,0,0,1,6.42,7.277,2.86,2.86,0,0,0,7.3,11.092a2.864,2.864,0,0,1-1.293-.356c0,.012,0,.024,0,.036a2.865,2.865,0,0,0,2.291,2.8,2.88,2.88,0,0,1-1.29.048A2.857,2.857,0,0,0,9.68,15.605a5.758,5.758,0,0,1-4.229,1.183Z" fill="#fff"/></svg>