<svg xmlns="http://www.w3.org/2000/svg" xmlns:xlink="http://www.w3.org/1999/xlink" width="260" height="260" viewBox="0 0 260 260">
  <defs>
    <linearGradient id="linear-gradient" x1="0.5" x2="0.5" y2="1" gradientUnits="objectBoundingBox">
      <stop offset="0" stop-color="#243b55"/>
      <stop offset="1" stop-color="#050521"/>
    </linearGradient>
  </defs>
  <g id="wiegand" transform="translate(-737 -1398)">
    <circle id="Oval_Copy_5" data-name="Oval Copy 5" cx="130" cy="130" r="130" transform="translate(737 1398)" fill="url(#linear-gradient)"/>
    <text id="Wiegand_RS485" data-name="Wiegand/RS485" transform="translate(801 1619)" fill="#fff" font-size="16" font-family="Roboto-Medium, Roboto" font-weight="500" letter-spacing="0.083em"><tspan x="0" y="0">Wiegand/RS485</tspan></text>
    <g id="handshake" transform="translate(787 1469)">
      <path id="Shape" d="M70.848,99A8.237,8.237,0,0,1,62.7,91.922c0-.013,0-.026,0-.039l0-.018,0-.014v-.007a8.432,8.432,0,0,1-1.21.092,8.217,8.217,0,0,1-8.165-7.153,8.469,8.469,0,0,1-1.213.092A8.227,8.227,0,0,1,43.94,77.8a.5.5,0,0,1-.005-.05l0-.023-.011,0-.009,0H43.9l-.01,0-.017,0-.016,0a8.4,8.4,0,0,1-1.146.078,8.237,8.237,0,0,1-8.152-7.078,8.1,8.1,0,0,1,.836-4.87l-6.475-.427a8.664,8.664,0,0,1-8.629,4.387L2.075,67.6a2.35,2.35,0,0,1,.287-4.684,2.515,2.515,0,0,1,.291.018l18.218,2.229a3.994,3.994,0,0,0,.48.029,3.913,3.913,0,0,0,3.886-3.418l6.256-50.521a3.855,3.855,0,0,0-.8-2.873,3.9,3.9,0,0,0-2.609-1.468L9.867,4.684A2.35,2.35,0,0,1,10.152,0a2.553,2.553,0,0,1,.292.018L28.661,2.246a8.6,8.6,0,0,1,5.771,3.263,8.5,8.5,0,0,1,1.754,6.318L36,13.3l7.693.52,2.852-5.533a8.846,8.846,0,0,1,3.33-3.536A9.011,9.011,0,0,1,54.5,3.468a8.875,8.875,0,0,1,2.357.319L62.15,5.24A2.349,2.349,0,0,1,63.8,8.132,2.367,2.367,0,0,1,60.89,9.771L55.6,8.317a4.21,4.21,0,0,0-4.845,2.114L47.193,17.34a2.355,2.355,0,0,1-2.1,1.279c-.051,0-.1,0-.16-.005l-9.5-.642-5.3,42.836,8.654.572A8.184,8.184,0,0,1,43.4,59.132a8.331,8.331,0,0,1,1.144-.078,8.246,8.246,0,0,1,7.8,5.6,8.331,8.331,0,0,1,3.162-.62,8.22,8.22,0,0,1,7.9,5.89,8.482,8.482,0,0,1,1.571-.372,8.364,8.364,0,0,1,1.146-.078,8.231,8.231,0,0,1,8.114,6.854,8.33,8.33,0,0,1,1.525-.14,8.219,8.219,0,0,1,8.157,7.082A8.111,8.111,0,0,1,82.33,89.33L77.44,95.75a8.205,8.205,0,0,1-5.446,3.172A8.383,8.383,0,0,1,70.848,99Zm4.915-18.117a3.621,3.621,0,0,0-.487.033,3.5,3.5,0,0,0-2.323,1.353l-.266.349L68.062,88.69a3.484,3.484,0,0,0,.68,4.9,3.5,3.5,0,0,0,2.117.709,3.607,3.607,0,0,0,.489-.034,3.5,3.5,0,0,0,2.323-1.353l4.891-6.421a3.488,3.488,0,0,0-.68-4.9A3.5,3.5,0,0,0,75.763,80.883Zm-9.648-6.71a3.7,3.7,0,0,0-.487.033,3.5,3.5,0,0,0-2.323,1.353l-1.231,1.616-3.391,4.453a3.484,3.484,0,0,0,.68,4.9,3.534,3.534,0,0,0,4.928-.676l4.624-6.071a3.489,3.489,0,0,0-.681-4.9A3.5,3.5,0,0,0,66.116,74.174ZM55.506,68.73A3.5,3.5,0,0,0,52.7,70.115L51.106,72.2l-1.8,2.365a3.483,3.483,0,0,0,.68,4.9,3.535,3.535,0,0,0,4.928-.676l3.392-4.452a3.488,3.488,0,0,0-.681-4.9A3.492,3.492,0,0,0,55.506,68.73ZM44.538,63.756a3.578,3.578,0,0,0-.488.033,3.5,3.5,0,0,0-2.323,1.353l-1.8,2.364a3.484,3.484,0,0,0,.68,4.9,3.493,3.493,0,0,0,2.117.71,3.447,3.447,0,0,0,.488-.033,3.505,3.505,0,0,0,2.324-1.354l1.8-2.364a3.484,3.484,0,0,0-.68-4.9A3.5,3.5,0,0,0,44.538,63.756Z" fill="#fff"/>
      <path id="Path" d="M110.982,65.444a2.359,2.359,0,0,0-2.626-2.06L90.2,65.629a3.91,3.91,0,0,1-4.351-3.413L85.664,60.7h0l-.043-.352-6-49.012a3.918,3.918,0,0,1,3.4-4.372l18.155-2.246a2.367,2.367,0,0,0-.576-4.7L82.438,2.263a8.655,8.655,0,0,0-7.559,8.816l-4.578.566L56.123,3.629a11.207,11.207,0,0,0-6.581-1.412l-.014,0-4.267.4a2.367,2.367,0,0,0,.434,4.714l4.279-.4a6.533,6.533,0,0,1,3.837.823l14.7,8.311a2.348,2.348,0,0,0,1.586.375l5.317-.657,3.9,31.831,1.349,11.008-8.481.007a2.348,2.348,0,0,0-1.538.576l-.656.513L48.693,41.279c4.866-1.406,9.5-4.805,13.842-10.157a2.375,2.375,0,0,0-.339-3.331,2.349,2.349,0,0,0-3.315.341c-4.847,5.981-9.944,9.06-15.149,9.151-7.583.143-13.154-6.174-13.206-6.233a2.349,2.349,0,0,0-3.652.1l-6.329,8.276A12.226,12.226,0,0,1,6.407,43.473l-.676-.257a1.584,1.584,0,0,1-.8-2.273l16.52-28.568A6.6,6.6,0,0,1,26.535,9.11L36.316,8.2a2.367,2.367,0,0,0-.434-4.714L26.1,4.4a11.316,11.316,0,0,0-8.73,5.6L.852,38.565a6.327,6.327,0,0,0,3.214,9.081l.676.257a17.094,17.094,0,0,0,6.073,1.121A16.919,16.919,0,0,0,24.28,42.316L29,36.141A23.219,23.219,0,0,0,42.28,41.977l30.77,26.646a2.756,2.756,0,0,1,.287,3.873l-1.2,1.4a4.179,4.179,0,0,1-5.9.435,2.356,2.356,0,0,0-.308-.223l-7.988-6.92a2.349,2.349,0,0,0-3.323.247,2.375,2.375,0,0,0,.246,3.339l6.491,5.624-2.961,3.453a4.161,4.161,0,0,1-5.9.438l-.035-.027-7.422-6.43a2.349,2.349,0,0,0-3.323.247,2.375,2.375,0,0,0,.246,3.339l5.672,4.914L44.652,85.8a4.18,4.18,0,0,1-3.665,1.433,2.367,2.367,0,0,0-.55,4.7,8.87,8.87,0,0,0,7.785-3.044l3.184-3.715a8.86,8.86,0,0,0,10.556-2.24l3.19-3.719a8.889,8.889,0,0,0,10.554-2.234l1.2-1.4a7.506,7.506,0,0,0-.78-10.55l-1.934-1.675,7.069-.006a8.6,8.6,0,0,0,9.514,6.973l18.155-2.245A2.365,2.365,0,0,0,110.982,65.444Z" transform="translate(49)" fill="#fff"/>
      <path id="Shape-2" data-name="Shape" d="M6.5,14A6.772,6.772,0,0,1,0,7,6.772,6.772,0,0,1,6.5,0,6.772,6.772,0,0,1,13,7,6.772,6.772,0,0,1,6.5,14Zm0-9.228A2.154,2.154,0,0,0,4.433,7,2.154,2.154,0,0,0,6.5,9.227,2.154,2.154,0,0,0,8.568,7,2.155,2.155,0,0,0,6.5,4.773Z" transform="translate(139 47)" fill="#fff"/>
      <path id="Shape-3" data-name="Shape" d="M6.5,14A6.772,6.772,0,0,1,0,7,6.772,6.772,0,0,1,6.5,0,6.772,6.772,0,0,1,13,7,6.772,6.772,0,0,1,6.5,14Zm0-9.228A2.154,2.154,0,0,0,4.433,7,2.154,2.154,0,0,0,6.5,9.227,2.154,2.154,0,0,0,8.568,7,2.155,2.155,0,0,0,6.5,4.773Z" transform="translate(8 47)" fill="#fff"/>
    </g>
  </g>
</svg>
