<svg xmlns="http://www.w3.org/2000/svg" width="22" height="15.483" viewBox="0 0 22 15.483">
  <path id="XMLID_823_" d="M16.082,15.483H5.918C.915,15.483,0,13.517,0,9.646V5.837c0-2,0-3.442.771-4.423C1.562.41,3.053,0,5.918,0H16.082c2.8,0,4.266.385,5.061,1.329S22,3.729,22,5.837V9.646c0,2.415-.381,3.81-1.274,4.664C19.856,15.143,18.511,15.483,16.082,15.483ZM9.18,4.532a.71.71,0,0,0-.71.71V10.05a.709.709,0,0,0,1.039.629l4.615-2.412a.71.71,0,0,0,0-1.259l-4.616-2.4A.71.71,0,0,0,9.18,4.532Z" fill="#fff"/>
</svg>
