<svg xmlns="http://www.w3.org/2000/svg" width="24.942" height="24.942" viewBox="0 0 24.942 24.942"><path d="M12.471,0A12.471,12.471,0,1,1,0,12.471,12.471,12.471,0,0,1,12.471,0Z" fill="#fff"/><path d="M11.463,14.023h-8.9A2.517,2.517,0,0,1,0,11.561V9.48A2.516,2.516,0,0,1,2.562,7.018h8.9A2.516,2.516,0,0,1,14.025,9.48v2.081A2.516,2.516,0,0,1,11.463,14.023ZM3.891,9.356V11.93a.548.548,0,0,0,.145.411.59.59,0,0,0,.428.139,1.261,1.261,0,0,0,.476-.1,1.7,1.7,0,0,0,.474-.284v.338h.821V9.356H5.414v2.337a.982.982,0,0,1-.255.166.568.568,0,0,1-.229.065.242.242,0,0,1-.169-.049.21.21,0,0,1-.05-.158V9.356Zm3.938,2.863h0a1.081,1.081,0,0,0,.346.193,1.366,1.366,0,0,0,.425.061.825.825,0,0,0,.55-.161.572.572,0,0,0,.191-.464V10.267a.678.678,0,0,0-.2-.533.854.854,0,0,0-.587-.181,1.05,1.05,0,0,0-.374.068,1.346,1.346,0,0,0-.348.2V8.574H7.01v3.863h.819v-.218Zm3.51-2.86a1.447,1.447,0,0,0-.865.241.742.742,0,0,0-.337.626v1.327a.809.809,0,0,0,.305.669,1.315,1.315,0,0,0,.837.243,1.441,1.441,0,0,0,.888-.229.8.8,0,0,0,.3-.684V11.4h-.813v.134a.5.5,0,0,1-.079.337.391.391,0,0,1-.276.077.347.347,0,0,1-.268-.089.507.507,0,0,1-.076-.324V10.98h1.512v-.754a.764.764,0,0,0-.291-.643A1.359,1.359,0,0,0,11.339,9.359ZM1.551,8.574v.556h.787v3.259H3.1V9.131h.788V8.574Zm6.666,3.452h0L8.021,12a.737.737,0,0,1-.193-.1V10.121L8,10.033l.172-.028a.391.391,0,0,1,.253.074.271.271,0,0,1,.085.22v1.472a.245.245,0,0,1-.07.194A.322.322,0,0,1,8.217,12.027ZM4.375,5.461h-.93V3.3L2.336,0h.938l.6,2.184h.059L4.513,0h.945L4.375,3.2V5.46Zm2.336-.008A1.428,1.428,0,0,1,5.8,5.14.9.9,0,0,1,5.458,4.4V2.5a.787.787,0,0,1,.351-.677,1.588,1.588,0,0,1,.941-.251,1.42,1.42,0,0,1,.884.265.833.833,0,0,1,.343.686V4.413a.9.9,0,0,1-.337.736A1.481,1.481,0,0,1,6.711,5.453ZM6.7,2.35a.562.562,0,0,0-.29.067.2.2,0,0,0-.112.175v1.8a.242.242,0,0,0,.1.21.494.494,0,0,0,.3.076A.577.577,0,0,0,7.015,4.6a.241.241,0,0,0,.117-.21v-1.8a.2.2,0,0,0-.118-.175A.627.627,0,0,0,6.7,2.35Zm2.621,3.1a.488.488,0,0,1-.385-.208.816.816,0,0,1-.13-.508V1.567h.735V4.474a.311.311,0,0,0,.049.194.169.169,0,0,0,.149.06.412.412,0,0,0,.206-.08,1.061,1.061,0,0,0,.227-.2V1.566h.736V5.358h-.736v-.42a1.538,1.538,0,0,1-.425.354L9.736,5.3l0,0A.921.921,0,0,1,9.321,5.45Z" transform="translate(5.458 4.68)" fill="#050521"/><path d="M.352,0A.375.375,0,0,0,.081.081.357.357,0,0,0,0,.346v.3H.7v-.3A.358.358,0,0,0,.616.081.362.362,0,0,0,.352,0Z" transform="translate(16.448 14.557)" fill="#fff"/></svg>